<?xml version="1.0" encoding="UTF-8" standalone="no"?>
<!-- Created with Inkscape (http://www.inkscape.org/) -->
<svg
   xmlns:dc="http://purl.org/dc/elements/1.1/"
   xmlns:cc="http://creativecommons.org/ns#"
   xmlns:rdf="http://www.w3.org/1999/02/22-rdf-syntax-ns#"
   xmlns:svg="http://www.w3.org/2000/svg"
   xmlns="http://www.w3.org/2000/svg"
   xmlns:xlink="http://www.w3.org/1999/xlink"
   xmlns:sodipodi="http://sodipodi.sourceforge.net/DTD/sodipodi-0.dtd"
   xmlns:inkscape="http://www.inkscape.org/namespaces/inkscape"
   width="115"
   height="30"
   id="svg3277"
   sodipodi:version="0.32"
   inkscape:version="0.46"
   version="1.0"
   sodipodi:docname="literature.svg"
   inkscape:output_extension="org.inkscape.output.svg.inkscape"
   inkscape:export-filename="C:\Users\Mickael\Workspace\spineconcept\spineconcepts-web\src\main\webapp\images\molecular\vertical\literature.png"
   inkscape:export-xdpi="90"
   inkscape:export-ydpi="90">
  <defs
     id="defs3279">
    <linearGradient
       id="linearGradient220">
      <stop
         id="stop221"
         offset="0.00000000"
         style="stop-color:#ffffff;stop-opacity:1.0000000;" />
      <stop
         id="stop224"
         offset="0.84552848"
         style="stop-color:#efefef;stop-opacity:1.0000000;" />
      <stop
         id="stop222"
         offset="1.0000000"
         style="stop-color:#a2a2a2;stop-opacity:1.0000000;" />
    </linearGradient>
    <linearGradient
       gradientTransform="matrix(0.9178964,0,0,0.5315953,-216.42798,-357.37834)"
       gradientUnits="userSpaceOnUse"
       id="linearGradient922"
       inkscape:collect="always"
       x1="285.51788"
       x2="285.31543"
       xlink:href="#linearGradient220"
       y1="683.88354"
       y2="714.64282" />
    <linearGradient
       id="linearGradient216">
      <stop
         id="stop217"
         offset="0.00000000"
         style="stop-color:#505050;stop-opacity:1.0000000;" />
      <stop
         id="stop218"
         offset="1.0000000"
         style="stop-color:#bfbfbf;stop-opacity:1.0000000;" />
    </linearGradient>
    <linearGradient
       gradientTransform="matrix(0.8656745,0,0,0.5636635,-216.42798,-357.37834)"
       gradientUnits="userSpaceOnUse"
       id="linearGradient921"
       inkscape:collect="always"
       x1="296.42935"
       x2="296.37903"
       xlink:href="#linearGradient216"
       y1="671.05518"
       y2="657.97278" />
    <linearGradient
       inkscape:collect="always"
       xlink:href="#linearGradient4839"
       id="linearGradient3881"
       gradientUnits="userSpaceOnUse"
       gradientTransform="matrix(3.6757432e-2,2.4489319e-2,-2.4489319e-2,3.6757432e-2,77.71114,97.587806)"
       x1="220.34375"
       y1="437.6875"
       x2="272.34375"
       y2="437.6875" />
    <linearGradient
       inkscape:collect="always"
       xlink:href="#linearGradient4839"
       id="linearGradient3878"
       gradientUnits="userSpaceOnUse"
       gradientTransform="matrix(3.6757432e-2,2.4489319e-2,-2.4489319e-2,3.6757432e-2,77.71114,97.587806)"
       x1="575.10089"
       y1="400.77295"
       x2="537.65759"
       y2="409.53513" />
    <linearGradient
       inkscape:collect="always"
       xlink:href="#linearGradient4802"
       id="linearGradient3874"
       gradientUnits="userSpaceOnUse"
       gradientTransform="matrix(3.6757432e-2,2.4489319e-2,-2.4489319e-2,3.6757432e-2,79.264423,111.93236)"
       x1="328.32013"
       y1="158.75533"
       x2="252.33459"
       y2="195.45378" />
    <linearGradient
       inkscape:collect="always"
       xlink:href="#linearGradient4748"
       id="linearGradient3871"
       gradientUnits="userSpaceOnUse"
       gradientTransform="matrix(3.6757432e-2,2.4489319e-2,-2.4489319e-2,3.6757432e-2,79.264423,111.93236)"
       x1="65.907921"
       y1="214.89569"
       x2="175.21396"
       y2="186.96429" />
    <linearGradient
       inkscape:collect="always"
       xlink:href="#linearGradient4839"
       id="linearGradient3866"
       gradientUnits="userSpaceOnUse"
       gradientTransform="matrix(3.6757432e-2,2.4489319e-2,-2.4489319e-2,3.6757432e-2,79.264423,111.93236)"
       x1="240.73027"
       y1="67.587868"
       x2="159.03828"
       y2="229.41087" />
    <linearGradient
       id="linearGradient3410">
      <stop
         style="stop-color:#f2f2f2;stop-opacity:1;"
         offset="0"
         id="stop3412" />
      <stop
         style="stop-color:#afa2a2;stop-opacity:1;"
         offset="1"
         id="stop3414" />
    </linearGradient>
    <linearGradient
       id="linearGradient4802">
      <stop
         style="stop-color:#f2f2f2;stop-opacity:1;"
         offset="0"
         id="stop4806" />
      <stop
         id="stop4808"
         offset="1"
         style="stop-color:#a6a6a6;stop-opacity:1;" />
    </linearGradient>
    <linearGradient
       id="linearGradient4748">
      <stop
         style="stop-color:#f8f8f8;stop-opacity:1;"
         offset="0"
         id="stop4750" />
      <stop
         id="stop4798"
         offset="0.83333331"
         style="stop-color:#c4c4c4;stop-opacity:1;" />
      <stop
         style="stop-color:#9b9b9b;stop-opacity:1;"
         offset="1"
         id="stop4752" />
    </linearGradient>
    <linearGradient
       id="linearGradient4839">
      <stop
         id="stop4841"
         offset="0"
         style="stop-color:#f8f8f8;stop-opacity:1;" />
      <stop
         style="stop-color:#c4c4c4;stop-opacity:1;"
         offset="1"
         id="stop4843" />
    </linearGradient>
    <linearGradient
       id="linearGradient3301">
      <stop
         style="stop-color:#207a7f;stop-opacity:1;"
         offset="0"
         id="stop3303" />
      <stop
         style="stop-color:#ffffff;stop-opacity:1;"
         offset="1"
         id="stop3305" />
    </linearGradient>
    <inkscape:perspective
       sodipodi:type="inkscape:persp3d"
       inkscape:vp_x="0 : 526.18109 : 1"
       inkscape:vp_y="0 : 1000 : 0"
       inkscape:vp_z="744.09448 : 526.18109 : 1"
       inkscape:persp3d-origin="372.04724 : 350.78739 : 1"
       id="perspective3285" />
    <filter
       inkscape:collect="always"
       id="filter4069"
       x="-0.043266054"
       width="1.0865321"
       y="-0.21436363"
       height="1.4287273">
      <feGaussianBlur
         inkscape:collect="always"
         stdDeviation="1.8453757"
         id="feGaussianBlur4071" />
    </filter>
    <radialGradient
       inkscape:collect="always"
       xlink:href="#linearGradient3301"
       id="radialGradient4322"
       cx="122.77778"
       cy="379.58441"
       fx="122.77778"
       fy="379.58441"
       r="13.696296"
       gradientUnits="userSpaceOnUse"
       gradientTransform="translate(-4.9893614,-4.9893614)" />
    <radialGradient
       inkscape:collect="always"
       xlink:href="#linearGradient3301"
       id="radialGradient4324"
       cx="103.97276"
       cy="13.005008"
       fx="103.97276"
       fy="13.005008"
       r="3.5313141"
       gradientTransform="matrix(1,0,0,0.3651611,0,8.2560849)"
       gradientUnits="userSpaceOnUse" />
    <radialGradient
       inkscape:collect="always"
       xlink:href="#linearGradient3301"
       id="radialGradient4326"
       cx="89.445816"
       cy="13.005008"
       fx="89.445816"
       fy="13.005008"
       r="3.5313108"
       gradientTransform="matrix(1,0,0,0.3651615,0,8.2560802)"
       gradientUnits="userSpaceOnUse" />
    <radialGradient
       inkscape:collect="always"
       xlink:href="#linearGradient3301"
       id="radialGradient4328"
       cx="74.918869"
       cy="13.005008"
       fx="74.918869"
       fy="13.005008"
       r="3.5313101"
       gradientTransform="matrix(1,0,0,0.3651615,0,8.2560796)"
       gradientUnits="userSpaceOnUse" />
    <radialGradient
       inkscape:collect="always"
       xlink:href="#linearGradient3301"
       id="radialGradient4330"
       cx="60.391918"
       cy="13.005008"
       fx="60.391918"
       fy="13.005008"
       r="3.5313108"
       gradientTransform="matrix(1,0,0,0.3651615,0,8.2560802)"
       gradientUnits="userSpaceOnUse" />
    <radialGradient
       inkscape:collect="always"
       xlink:href="#linearGradient3301"
       id="radialGradient4332"
       cx="45.864967"
       cy="12.892918"
       fx="45.864967"
       fy="12.892918"
       r="3.5313108"
       gradientTransform="matrix(1,0,0,0.3651613,0,8.1849227)"
       gradientUnits="userSpaceOnUse" />
    <radialGradient
       inkscape:collect="always"
       xlink:href="#linearGradient3301"
       id="radialGradient4334"
       cx="31.281975"
       cy="12.836874"
       fx="31.281975"
       fy="12.836874"
       r="3.5313113"
       gradientTransform="matrix(1,0,0,0.3651613,0,8.1493445)"
       gradientUnits="userSpaceOnUse" />
    <radialGradient
       inkscape:collect="always"
       xlink:href="#linearGradient3301"
       id="radialGradient4336"
       cx="122.77778"
       cy="379.58441"
       fx="122.77778"
       fy="379.58441"
       r="13.696296"
       gradientUnits="userSpaceOnUse"
       gradientTransform="translate(-4.9893614,-4.9893614)" />
    <radialGradient
       inkscape:collect="always"
       xlink:href="#linearGradient3301"
       id="radialGradient4338"
       cx="122.77778"
       cy="379.58441"
       fx="122.77778"
       fy="379.58441"
       r="13.696296"
       gradientUnits="userSpaceOnUse"
       gradientTransform="translate(-4.9893614,-4.9893614)" />
    <radialGradient
       inkscape:collect="always"
       xlink:href="#linearGradient3301"
       id="radialGradient4340"
       cx="122.77778"
       cy="379.58441"
       fx="122.77778"
       fy="379.58441"
       r="13.696296"
       gradientUnits="userSpaceOnUse"
       gradientTransform="translate(-4.9893614,-4.9893614)" />
    <radialGradient
       inkscape:collect="always"
       xlink:href="#linearGradient3301"
       id="radialGradient4342"
       cx="122.77778"
       cy="379.58441"
       fx="122.77778"
       fy="379.58441"
       r="13.696296"
       gradientUnits="userSpaceOnUse"
       gradientTransform="translate(-4.9893614,-4.9893614)" />
    <radialGradient
       inkscape:collect="always"
       xlink:href="#linearGradient3301"
       id="radialGradient4344"
       cx="122.77778"
       cy="379.58441"
       fx="122.77778"
       fy="379.58441"
       r="13.696296"
       gradientUnits="userSpaceOnUse"
       gradientTransform="translate(-4.9893614,-4.9893614)" />
    <radialGradient
       inkscape:collect="always"
       xlink:href="#linearGradient3301"
       id="radialGradient4346"
       cx="122.77778"
       cy="379.58441"
       fx="122.77778"
       fy="379.58441"
       r="13.696296"
       gradientUnits="userSpaceOnUse"
       gradientTransform="translate(-4.9893614,-4.9893614)" />
  </defs>
  <sodipodi:namedview
     id="base"
     pagecolor="#207a7a"
     bordercolor="#666666"
     borderopacity="1.0"
     gridtolerance="10000"
     guidetolerance="10"
     objecttolerance="10"
     inkscape:pageopacity="0"
     inkscape:pageshadow="2"
     inkscape:zoom="1.7634324"
     inkscape:cx="66.467067"
     inkscape:cy="2.7995763"
     inkscape:document-units="px"
     inkscape:current-layer="layer1"
     showgrid="false"
     inkscape:window-width="1920"
     inkscape:window-height="1018"
     inkscape:window-x="-8"
     inkscape:window-y="-8" />
  <metadata
     id="metadata3282">
    <rdf:RDF>
      <cc:Work
         rdf:about="">
        <dc:format>image/svg+xml</dc:format>
        <dc:type
           rdf:resource="http://purl.org/dc/dcmitype/StillImage" />
      </cc:Work>
    </rdf:RDF>
  </metadata>
  <g
     inkscape:label="Layer 1"
     inkscape:groupmode="layer"
     id="layer1">
    <rect
       style="opacity:1;fill:#fffeff;fill-opacity:1;fill-rule:evenodd;stroke:none;stroke-width:2;stroke-linecap:round;stroke-linejoin:round;marker:none;marker-start:none;marker-mid:none;marker-end:none;stroke-miterlimit:4;stroke-dasharray:none;stroke-dashoffset:0;stroke-opacity:0.71428576;visibility:visible;display:inline;overflow:visible;filter:url(#filter4069);enable-background:accumulate"
       id="rect4047"
       width="102.36435"
       height="20.660694"
       x="4.343441"
       y="4.0567431"
       transform="matrix(1.021789,0,0,0.9829546,0.8619426,6.9148996e-2)" />
    <g
       id="g4232"
       transform="matrix(1.0939594,0,0,1.0939594,-13.87226,-122.46801)">
      <path
         sodipodi:nodetypes="ccccccccccc"
         id="path5185"
         d="M 77.011383,117.00736 L 83.015659,120.01726 L 89.730404,120.16622 C 90.0506,120.24574 90.244359,120.56755 90.164838,120.88777 L 87.343579,132.24853 C 87.264063,132.56874 86.942267,132.76252 86.62207,132.68299 L 79.907326,132.53404 L 73.903051,129.52412 C 73.582853,129.4446 73.389097,129.12279 73.468615,128.80258 L 76.289874,117.44182 C 76.369392,117.1216 76.691188,116.92782 77.011383,117.00736 z"
         style="fill:#333333;fill-opacity:1;fill-rule:nonzero;stroke:#333333;stroke-width:0.70399666;stroke-miterlimit:4;stroke-dasharray:none;stroke-opacity:1" />
      <path
         id="path5187"
         d="M 79.326542,128.11916 C 79.321899,128.1004 79.319713,128.08158 79.319476,128.06333 C 79.319239,128.0451 79.320566,128.02734 79.324932,128.00976 C 79.316199,128.04493 79.31726,128.08165 79.326542,128.11916 z"
         style="fill:#cccccc;fill-opacity:1;fill-rule:nonzero;stroke:none;stroke-width:5;stroke-miterlimit:4;stroke-opacity:1;display:inline" />
      <path
         id="path5189"
         d="M 79.620818,128.4652 C 79.567078,128.42737 79.519936,128.38869 79.479414,128.34985 C 79.438901,128.311 79.404968,128.27215 79.379271,128.23341 C 79.430673,128.31086 79.513327,128.38958 79.620818,128.4652 z"
         style="fill:#cccccc;fill-opacity:1;fill-rule:nonzero;stroke:none;stroke-width:5;stroke-miterlimit:4;stroke-opacity:1;display:inline" />
      <path
         id="path5191"
         d="M 81.741656,128.85848 C 81.714592,128.86974 81.689941,128.8821 81.658574,128.89104 C 81.621727,128.90153 81.57869,128.90844 81.536479,128.91565 C 81.614601,128.90229 81.682847,128.88299 81.741656,128.85848 z"
         style="fill:#cccccc;fill-opacity:1;fill-rule:nonzero;stroke:none;stroke-width:5;stroke-miterlimit:4;stroke-opacity:1;display:inline" />
      <path
         transform="matrix(1.1835107e-2,2.9391949e-3,-1.1396872e-3,4.5891215e-3,74.907608,127.50706)"
         d="M 263.64982,121.18461 A 146.47212,146.47212 0 1 1 -29.294426,121.18461 A 146.47212,146.47212 0 1 1 263.64982,121.18461 z"
         sodipodi:ry="146.47212"
         sodipodi:rx="146.47212"
         sodipodi:cy="121.18461"
         sodipodi:cx="117.1777"
         id="path5193"
         style="fill:#666666;fill-opacity:1;fill-rule:nonzero;stroke:none;stroke-width:5;stroke-miterlimit:4;stroke-dasharray:none;stroke-opacity:1;display:inline"
         sodipodi:type="arc" />
      <path
         sodipodi:nodetypes="ccccccccccc"
         id="path5195"
         d="M 73.921456,129.01795 L 75.91816,128.76958 L 80.022512,132.0216 L 85.171415,131.06759 L 86.819935,132.22123 C 87.777436,128.36571 88.73494,124.51018 89.692441,120.65466 L 88.043923,119.50101 L 82.89502,120.45503 L 78.790663,117.20302 L 76.793961,117.45138 C 75.83646,121.3069 74.878957,125.16243 73.921456,129.01795 z"
         style="fill:#e6e6e6;fill-opacity:1;fill-rule:nonzero;stroke:none;stroke-width:5;stroke-miterlimit:4;stroke-opacity:1;display:inline" />
      <path
         sodipodi:nodetypes="ccccccccc"
         id="path5197"
         d="M 73.921456,129.01795 L 80.022512,132.0216 L 86.819935,132.22123 C 87.777436,128.36571 88.73494,124.51018 89.692441,120.65466 L 88.043923,119.50101 L 82.89502,120.45503 L 78.790663,117.20302 L 76.793961,117.45138 C 75.83646,121.3069 74.878957,125.16243 73.921456,129.01795 z"
         style="fill:#e6e6e6;fill-opacity:1;fill-rule:nonzero;stroke:none;stroke-width:5;stroke-miterlimit:4;stroke-opacity:1;display:inline" />
      <path
         sodipodi:nodetypes="ccccccccccc"
         id="path5199"
         d="M 73.921456,129.01795 L 75.91816,128.76958 L 80.022512,132.0216 L 85.171415,131.06759 L 86.819935,132.22123 C 87.777436,128.36571 88.73494,124.51018 89.692441,120.65466 L 88.043923,119.50101 L 82.89502,120.45503 L 78.790663,117.20302 L 76.793961,117.45138 C 75.83646,121.3069 74.878957,125.16243 73.921456,129.01795 z"
         style="fill:#e6e6e6;fill-opacity:1;fill-rule:nonzero;stroke:none;stroke-width:5;stroke-miterlimit:4;stroke-opacity:1;display:inline" />
      <path
         sodipodi:nodetypes="ccccc"
         id="path5201"
         d="M 73.921456,129.01795 L 75.91816,128.76958 L 78.790663,117.20302 L 76.793961,117.45138 C 75.83646,121.3069 74.878957,125.16243 73.921456,129.01795 z"
         style="fill:url(#linearGradient3881);fill-opacity:1;fill-rule:nonzero;stroke:none;stroke-width:5;stroke-miterlimit:4;stroke-opacity:1;display:inline" />
      <path
         sodipodi:nodetypes="ccccc"
         id="path5203"
         d="M 85.171415,131.06759 L 86.819935,132.22123 C 87.777436,128.36571 88.73494,124.51018 89.692441,120.65466 L 88.043923,119.50101 L 85.171415,131.06759 z"
         style="fill:url(#linearGradient3878);fill-opacity:1;fill-rule:nonzero;stroke:none;stroke-width:5;stroke-miterlimit:4;stroke-opacity:1;display:inline" />
      <path
         sodipodi:nodetypes="czczcczczcc"
         id="path5205"
         d="M 75.91816,128.76958 C 75.91816,128.76958 77.381796,129.31913 78.407888,130.13213 C 79.433975,130.94514 80.022512,132.0216 80.022512,132.0216 C 80.022512,132.0216 81.04628,131.34556 82.33351,131.10704 C 83.620732,130.86855 85.171415,131.06759 85.171415,131.06759 L 88.043923,119.50101 C 88.043923,119.50101 86.493237,119.30198 85.206015,119.54048 C 83.918786,119.77898 82.89502,120.45503 82.89502,120.45503 C 82.89502,120.45503 82.306476,119.37857 81.280392,118.56556 C 80.254305,117.75255 78.790663,117.20302 78.790663,117.20302 L 75.91816,128.76958 z"
         style="fill:#e6e6e6;fill-opacity:1;fill-rule:nonzero;stroke:none;stroke-width:5;stroke-miterlimit:4;stroke-opacity:1;display:inline" />
      <path
         id="path5207"
         d="M 82.894811,120.45492 L 80.022306,132.02149 C 80.022306,132.02149 81.046073,131.34545 82.3333,131.10694 C 83.620522,130.86844 85.171205,131.06749 85.171205,131.06749 L 88.043714,119.50091 C 88.043714,119.50091 86.49303,119.30187 85.205808,119.54036 C 83.918579,119.77888 82.894811,120.45492 82.894811,120.45492 z"
         style="fill:url(#linearGradient3874);fill-opacity:1;fill-rule:nonzero;stroke:none;stroke-width:5;stroke-miterlimit:4;stroke-opacity:1;display:inline" />
      <path
         id="path5209"
         d="M 78.790454,117.20291 L 75.917954,128.76947 C 75.917954,128.76947 77.381588,129.31903 78.407678,130.13203 C 79.433767,130.94503 80.022306,132.02149 80.022306,132.02149 L 82.894811,120.45492 C 82.894811,120.45492 82.306268,119.37847 81.280186,118.56545 C 80.254096,117.75245 78.790454,117.20291 78.790454,117.20291 z"
         style="fill:url(#linearGradient3871);fill-opacity:1;fill-rule:nonzero;stroke:none;stroke-width:5;stroke-miterlimit:4;stroke-opacity:1;display:inline" />
      <path
         id="path5211"
         d="M 75.917939,128.76953 L 73.921236,129.0179 L 80.022291,132.02155 C 80.022291,132.02155 79.984826,131.95467 79.913619,131.84105 C 79.84241,131.72743 79.737459,131.56706 79.599761,131.38169 C 79.530914,131.289 79.453964,131.19002 79.369374,131.08725 C 79.284787,130.98448 79.192977,130.8786 79.093241,130.77098 C 78.993509,130.66335 78.885679,130.55408 78.771387,130.44684 C 78.657092,130.3396 78.535922,130.23371 78.407665,130.13208 C 78.279402,130.03045 78.143875,129.93321 78.005657,129.84037 C 77.867435,129.74754 77.725836,129.65953 77.585078,129.57661 C 77.444326,129.49368 77.304245,129.41594 77.168385,129.34404 C 77.032521,129.27214 76.90156,129.20568 76.778015,129.14593 C 76.530931,129.02643 76.316326,128.93301 76.163077,128.86878 C 76.009828,128.80456 75.917939,128.76953 75.917939,128.76953 z"
         style="fill:#b3b3b3;fill-opacity:1;fill-rule:nonzero;stroke:none;stroke-width:5;stroke-miterlimit:4;stroke-opacity:1;display:inline" />
      <path
         id="path5213"
         d="M 80.022291,132.02155 L 86.819718,132.22117 L 85.171193,131.06754 C 85.171193,131.06754 85.073594,131.05551 84.908104,131.04057 C 84.742615,131.02564 84.509236,131.0078 84.234951,130.99783 C 84.097809,130.99284 83.950966,130.99032 83.797257,130.99029 C 83.643542,130.99028 83.483368,130.99345 83.320169,131.0009 C 83.156971,131.00833 82.990652,131.01986 82.82506,131.03725 C 82.659466,131.05463 82.494191,131.07718 82.333288,131.10699 C 82.172386,131.1368 82.015753,131.17371 81.864568,131.21502 C 81.713379,131.25634 81.566961,131.30246 81.428463,131.35092 C 81.289965,131.39938 81.159288,131.45 81.036448,131.50126 C 80.913612,131.55252 80.79929,131.60401 80.695084,131.65371 C 80.48666,131.75312 80.318871,131.84576 80.202778,131.91288 C 80.086693,131.97997 80.022291,132.02155 80.022291,132.02155 z"
         style="fill:#b3b3b3;fill-opacity:1;fill-rule:nonzero;stroke:none;stroke-width:5;stroke-miterlimit:4;stroke-opacity:1;display:inline" />
      <path
         sodipodi:nodetypes="cczcczc"
         id="path5215"
         d="M 82.894811,120.45492 L 80.022306,132.02149 C 80.022306,132.02149 80.626152,130.64804 81.773403,130.17707 C 82.920658,129.70609 84.611311,130.13761 84.611311,130.13761 L 87.483815,118.57104 C 87.483815,118.57104 85.793162,118.13952 84.64591,118.61049 C 83.498658,119.08147 82.894811,120.45492 82.894811,120.45492 z"
         style="fill:url(#linearGradient3866);fill-opacity:1;fill-rule:nonzero;stroke:none;stroke-width:5;stroke-miterlimit:4;stroke-opacity:1;display:inline" />
    </g>
    <path
       d="M 35.043987,6.4266212 C 35.043987,6.4266105 31.135187,18.045981 31.223883,20.440949 C 31.312589,22.835927 33.71241,22.733013 33.71241,22.733013 L 57.39707,22.733013 C 57.39707,22.733013 59.796881,22.835927 59.885597,20.440949 C 59.974293,18.045981 56.065483,6.4266105 56.065493,6.4266212 L 35.043987,6.4266212 z"
       id="path30"
       inkscape:export-filename="F:\vectoriel\scade\news.png"
       inkscape:export-xdpi="12.437814"
       inkscape:export-ydpi="12.437814"
       sodipodi:nodetypes="ccccccc"
       style="fill:url(#linearGradient922);fill-opacity:1;fill-rule:evenodd;stroke:#000000;stroke-width:0.69853365;stroke-linecap:butt;stroke-linejoin:miter;stroke-miterlimit:4;stroke-opacity:1" />
    <path
       d="M 45.954426,13.518736 L 35.753614,13.518736 C 35.753614,13.518736 33.890862,18.219975 33.979557,19.81662 C 34.068263,21.413265 35.043987,21.235875 35.043987,21.235875 L 45.954426,21.235875 L 45.954426,13.518736 z"
       id="path33"
       inkscape:export-filename="F:\vectoriel\scade\news.png"
       inkscape:export-xdpi="12.437814"
       inkscape:export-ydpi="12.437814"
       style="fill:url(#linearGradient921);fill-opacity:1;fill-rule:evenodd;stroke:#555555;stroke-width:0.69853365;stroke-linecap:butt;stroke-linejoin:miter;stroke-miterlimit:4;stroke-opacity:1" />
    <text
       id="text49"
       inkscape:export-filename="F:\vectoriel\scade\news.png"
       inkscape:export-xdpi="12.437814"
       inkscape:export-ydpi="12.437814"
       sodipodi:linespacing="110%"
       style="font-size:0.32326439px;font-style:normal;font-variant:normal;font-weight:bold;font-stretch:normal;line-height:110.00000238%;writing-mode:lr-tb;text-anchor:start;fill:#000000;fill-opacity:1;stroke:none;stroke-width:1pt;stroke-linecap:butt;stroke-linejoin:miter;stroke-opacity:1;font-family:Bookman Old Style"
       x="51.020119"
       xml:space="preserve"
       y="8.3429699"><tspan
         id="tspan945"
         sodipodi:role="line"
         x="51.020119"
         y="8.3429699">Dec 29, 2004 - The Inkscape </tspan><tspan
         id="tspan947"
         sodipodi:role="line"
         x="51.020119"
         y="8.6985607">developers have set a goal</tspan><tspan
         id="tspan949"
         sodipodi:role="line"
         x="51.020119"
         y="9.0541515">for the release of Inkscape 0.41 </tspan><tspan
         id="tspan951"
         sodipodi:role="line"
         x="51.020119"
         y="9.4097424">for mid-late January. There are </tspan><tspan
         id="tspan953"
         sodipodi:role="line"
         x="51.020119"
         y="9.7653332">some noteworthy new features </tspan><tspan
         id="tspan955"
         sodipodi:role="line"
         x="51.020119"
         y="10.120924">that would be worth getting out </tspan><tspan
         id="tspan957"
         sodipodi:role="line"
         x="51.020119"
         y="10.476515">to users, and with some major </tspan><tspan
         id="tspan959"
         sodipodi:role="line"
         x="51.020119"
         y="10.832106">internal changes that will be </tspan><tspan
         id="tspan961"
         sodipodi:role="line"
         x="51.020119"
         y="11.187696">taking place soon, a good stable </tspan><tspan
         id="tspan963"
         sodipodi:role="line"
         x="51.020119"
         y="11.543287">release is needed prior to starting </tspan><tspan
         id="tspan965"
         sodipodi:role="line"
         x="51.020119"
         y="11.898878">such an undertaking.</tspan></text>
    <text
       id="text90"
       inkscape:export-filename="F:\vectoriel\scade\news.png"
       inkscape:export-xdpi="12.437814"
       inkscape:export-ydpi="12.437814"
       sodipodi:linespacing="140%"
       style="font-size:0.69173998px;font-style:normal;font-variant:normal;font-weight:300;font-stretch:normal;line-height:139.99999762%;writing-mode:lr-tb;text-anchor:start;fill:#000000;fill-opacity:1;stroke:none;stroke-width:1pt;stroke-linecap:butt;stroke-linejoin:miter;stroke-opacity:1;font-family:Bookman Old Style"
       x="47.533005"
       xml:space="preserve"
       y="13.233103"><tspan
         id="tspan923"
         sodipodi:role="line"
         x="47.533005"
         y="13.233103">Dec 29, 2004 - The Inkscape </tspan><tspan
         id="tspan925"
         sodipodi:role="line"
         x="47.533005"
         y="14.201539">developers have set a goal</tspan><tspan
         id="tspan927"
         sodipodi:role="line"
         x="47.533005"
         y="15.169974">for the release of Inkscape 0.41 </tspan><tspan
         id="tspan929"
         sodipodi:role="line"
         x="47.533005"
         y="16.138411">for mid-late January. There are </tspan><tspan
         id="tspan931"
         sodipodi:role="line"
         x="47.533005"
         y="17.106846">some noteworthy new features </tspan><tspan
         id="tspan933"
         sodipodi:role="line"
         x="47.533005"
         y="18.075283">that would be worth getting out </tspan><tspan
         id="tspan935"
         sodipodi:role="line"
         x="47.533005"
         y="19.043718">to users, and with some major </tspan><tspan
         id="tspan937"
         sodipodi:role="line"
         x="47.533005"
         y="20.012154">internal changes that will be </tspan><tspan
         id="tspan939"
         sodipodi:role="line"
         x="47.533005"
         y="20.980591">taking place soon, a good stable </tspan><tspan
         id="tspan941"
         sodipodi:role="line"
         x="47.533005"
         y="21.949026">release is needed prior to starting </tspan><tspan
         id="tspan943"
         sodipodi:role="line"
         x="47.533005"
         y="22.917461">such an undertaking.</tspan></text>
    <g
       id="g466"
       inkscape:export-filename="F:\vectoriel\scade\news.png"
       inkscape:export-xdpi="12.437814"
       inkscape:export-ydpi="12.437814"
       transform="matrix(0.6985335,0,0,0.6985335,-216.42802,-357.37845)">
      <text
         id="text46"
         sodipodi:linespacing="100%"
         style="font-size:7.19524765px;font-style:normal;font-variant:normal;font-weight:bold;font-stretch:normal;line-height:100%;writing-mode:lr-tb;text-anchor:start;fill:#000000;fill-opacity:1;stroke:none;stroke-width:1pt;stroke-linecap:butt;stroke-linejoin:miter;stroke-opacity:1;font-family:Bitstream Vera Sans"
         transform="matrix(1,0,-0.273892,1,0,0)"
         x="503.93686"
         xml:space="preserve"
         y="528.50177"><tspan
           id="tspan47"
           sodipodi:role="line"
           style="letter-spacing:-0.82717609;font-family:Bitstream Vera Sans"
           x="503.93686"
           y="528.50177">N</tspan></text>
      <text
         id="text460"
         sodipodi:linespacing="100%"
         style="font-size:7.19524765px;font-style:normal;font-variant:normal;font-weight:bold;font-stretch:normal;line-height:100%;writing-mode:lr-tb;text-anchor:start;fill:#000000;fill-opacity:1;stroke:none;stroke-width:1pt;stroke-linecap:butt;stroke-linejoin:miter;stroke-opacity:1;font-family:Bitstream Vera Sans"
         transform="matrix(1,0,-0.136946,1,0,0)"
         x="437.3074"
         xml:space="preserve"
         y="528.50177"><tspan
           id="tspan461"
           sodipodi:role="line"
           style="letter-spacing:-0.82717609;font-family:Bitstream Vera Sans"
           x="437.3074"
           y="528.50177">E</tspan></text>
      <text
         id="text463"
         sodipodi:linespacing="100%"
         style="font-size:7.19524765px;font-style:normal;font-variant:normal;font-weight:bold;font-stretch:normal;line-height:100%;writing-mode:lr-tb;text-anchor:start;fill:#000000;fill-opacity:1;stroke:none;stroke-width:1pt;stroke-linecap:butt;stroke-linejoin:miter;stroke-opacity:1;font-family:Bitstream Vera Sans"
         x="370.13919"
         xml:space="preserve"
         y="528.3999"><tspan
           id="tspan464"
           sodipodi:role="line"
           style="letter-spacing:-0.82717609;font-family:Bitstream Vera Sans"
           x="370.13919"
           y="528.3999">WS</tspan></text>
    </g>
    <rect
       height="2.2423067"
       id="rect620"
       inkscape:export-filename="F:\vectoriel\scade\news.png"
       inkscape:export-xdpi="12.437814"
       inkscape:export-ydpi="12.437814"
       style="fill:none;fill-opacity:1;fill-rule:nonzero;stroke:none;stroke-width:3;stroke-linecap:round;stroke-linejoin:round;marker:none;marker-start:none;marker-mid:none;marker-end:none;stroke-miterlimit:4;stroke-dashoffset:0;stroke-opacity:1;visibility:visible;display:block"
       width="27.877325"
       x="31.407364"
       y="10.963332" />
  </g>
</svg>
