<?xml version="1.0" encoding="UTF-8" standalone="no"?>
<svg
   xmlns:dc="http://purl.org/dc/elements/1.1/"
   xmlns:cc="http://creativecommons.org/ns#"
   xmlns:rdf="http://www.w3.org/1999/02/22-rdf-syntax-ns#"
   xmlns:svg="http://www.w3.org/2000/svg"
   xmlns="http://www.w3.org/2000/svg"
   xmlns:sodipodi="http://sodipodi.sourceforge.net/DTD/sodipodi-0.dtd"
   xmlns:inkscape="http://www.inkscape.org/namespaces/inkscape"
   width="381"
   height="425"
   id="svg2685"
   sodipodi:version="0.32"
   inkscape:version="0.46"
   sodipodi:docname="logo.svg"
   inkscape:output_extension="org.inkscape.output.svg.inkscape"
   version="1.0"
   inkscape:export-filename="C:\Users\Mickael\Workspace\spineconcept\spineconcepts-web\src\main\resources\uk\ac\ebi\s4\web\wicket\images\logo.png"
   inkscape:export-xdpi="9.5294113"
   inkscape:export-ydpi="9.5294113">
  <defs
     id="defs2687">
    <inkscape:perspective
       sodipodi:type="inkscape:persp3d"
       inkscape:vp_x="0 : 526.18109 : 1"
       inkscape:vp_y="0 : 1000 : 0"
       inkscape:vp_z="744.09448 : 526.18109 : 1"
       inkscape:persp3d-origin="372.04724 : 350.78739 : 1"
       id="perspective2693" />
  </defs>
  <sodipodi:namedview
     id="base"
     pagecolor="#ffffff"
     bordercolor="#666666"
     borderopacity="1.0"
     gridtolerance="10000"
     guidetolerance="10"
     objecttolerance="10"
     inkscape:pageopacity="0.0"
     inkscape:pageshadow="2"
     inkscape:zoom="2.8"
     inkscape:cx="12.519922"
     inkscape:cy="347.95083"
     inkscape:document-units="px"
     inkscape:current-layer="layer1"
     showgrid="false"
     inkscape:window-width="640"
     inkscape:window-height="669"
     inkscape:window-x="92"
     inkscape:window-y="92" />
  <metadata
     id="metadata2690">
    <rdf:rdf>
      <cc:work
         rdf:about="">
        <dc:format>image/svg+xml</dc:format>
        <dc:type
           rdf:resource="http://purl.org/dc/dcmitype/StillImage" />
      </cc:work>
    </rdf:rdf>
    <rdf:RDF>
      <cc:Work
         rdf:about="">
        <dc:format>image/svg+xml</dc:format>
        <dc:type
           rdf:resource="http://purl.org/dc/dcmitype/StillImage" />
      </cc:Work>
    </rdf:RDF>
  </metadata>
  <g
     inkscape:label="Layer 1"
     inkscape:groupmode="layer"
     id="layer1"
     transform="translate(-9.182752,-8.4695956)">
    <path
       d="M 195.63714,10.602633 C 206.87464,9.1526329 217.56214,19.790133 215.88714,31.065133 C 214.88714,41.852633 202.88714,50.340133 192.47464,46.715133 C 183.03714,44.127633 176.58714,33.015133 179.96214,23.665133 C 181.88714,16.615133 188.42464,11.377633 195.63714,10.602633 z"
       id="path2558"
       style="fill:#cbd0cb" />
    <path
       d="M 150.54964,35.727633 C 159.81214,32.565133 170.77464,38.202633 173.33714,47.677633 C 176.91214,58.065133 168.62464,70.440133 157.56214,70.715133 C 148.19964,71.852633 138.98714,64.290133 138.26214,54.915133 C 137.13714,46.652633 142.52464,38.090133 150.54964,35.727633 z"
       id="path2560"
       style="fill:#75b461" />
    <path
       d="M 236.72464,35.590133 C 245.46214,32.977633 255.71214,37.677633 258.68714,46.452633 C 262.89964,56.490133 255.86214,69.215133 244.97464,70.565133 C 236.02464,72.327633 226.53714,66.302633 224.48714,57.402633 C 221.83714,48.365133 227.68714,38.077633 236.72464,35.590133 z"
       id="path2562"
       style="fill:#75b461" />
    <path
       d="M 109.32464,59.352633 C 118.28714,56.740133 128.63714,62.352633 131.12464,71.402633 C 134.28714,80.565133 128.51214,91.602633 119.06214,94.002633 C 109.33714,97.252633 97.774641,90.302633 96.287141,80.115133 C 94.299641,71.152633 100.39964,61.427633 109.32464,59.352633 z"
       id="path2564"
       style="fill:#75b461" />
    <path
       d="M 191.88714,59.215133 C 197.66214,58.090133 204.26214,58.252633 208.99964,62.240133 C 217.97464,68.865133 218.27464,83.690133 209.57464,90.702633 C 201.01214,98.865133 185.13714,95.327633 180.82464,84.327633 C 175.92464,74.865133 181.71214,62.102633 191.88714,59.215133 z"
       id="path2566"
       style="fill:#cbd0cb" />
    <path
       d="M 280.34964,59.090133 C 289.94964,56.915133 300.39964,63.990133 301.62464,73.815133 C 303.46214,83.377633 296.18714,93.490133 286.46214,94.552633 C 276.37464,96.377633 265.94964,87.877633 265.96214,77.590133 C 265.22464,68.940133 271.88714,60.602633 280.34964,59.090133 z"
       id="path2568"
       style="fill:#75b461" />
    <path
       d="M 67.912141,82.877633 C 77.374641,81.065133 87.312141,88.040133 88.637141,97.615133 C 90.749641,107.95263 81.962141,118.75263 71.374641,118.56513 C 61.849641,119.22763 53.024641,110.89013 52.899641,101.40263 C 52.362141,92.602633 59.124641,84.090133 67.912141,82.877633 z"
       id="path2570"
       style="fill:#75b461" />
    <path
       d="M 236.68714,82.915133 C 242.19964,81.852633 248.48714,82.102633 252.94964,85.927633 C 260.62464,91.427633 262.59964,103.05263 257.24964,110.81513 C 251.58714,120.01513 237.16214,121.91513 229.49964,114.20263 C 223.87464,109.44013 222.43714,101.36513 224.49964,94.540133 C 226.46214,89.052633 231.17464,84.690133 236.68714,82.915133 z"
       id="path2572"
       style="fill:#cbd0cb" />
    <path
       d="M 321.81214,83.227633 C 331.11214,80.515133 341.72464,86.790133 343.83714,96.240133 C 346.87464,106.55263 338.52464,118.32763 327.69964,118.52763 C 318.37464,119.52763 309.27464,112.00263 308.53714,102.66513 C 307.37464,94.065133 313.31214,85.165133 321.81214,83.227633 z"
       id="path2574"
       style="fill:#75b461" />
    <path
       d="M 24.437141,107.16513 C 33.937141,104.32763 44.949641,110.76513 46.799641,120.57763 C 49.174641,130.10263 42.387141,140.65263 32.674641,142.20263 C 23.174641,144.29013 12.837141,137.31513 11.499641,127.62763 C 9.7371414,118.77763 15.724641,109.37763 24.437141,107.16513 z"
       id="path2576"
       style="fill:#75b461" />
    <path
       d="M 109.38714,107.10263 C 118.66214,104.45263 129.23714,110.55263 131.34964,120.00263 C 134.09964,129.29013 127.79964,139.89013 118.38714,141.99013 C 109.46214,144.46513 99.337141,138.89013 96.799641,129.97763 C 93.499641,120.54013 99.662141,109.32763 109.38714,107.10263 z"
       id="path2578"
       style="fill:#75b461" />
    <path
       d="M 279.34964,107.09013 C 288.58714,104.52763 299.24964,110.52763 301.26214,120.01513 C 304.22464,129.90263 296.74964,141.16513 286.53714,142.34013 C 276.79964,144.04013 266.56214,136.29013 266.01214,126.34013 C 264.89964,117.74013 270.91214,109.04013 279.34964,107.09013 z"
       id="path2580"
       style="fill:#75b461" />
    <path
       d="M 364.39964,107.15263 C 374.17464,104.20263 385.32464,111.29013 386.76214,121.37763 C 388.57464,130.27763 382.56214,139.82763 373.71214,141.91513 C 364.37464,144.72763 353.66214,138.40263 351.58714,128.91513 C 349.03714,119.74013 355.09964,109.30263 364.39964,107.15263 z"
       id="path2582"
       style="fill:#75b461" />
    <path
       d="M 66.862141,130.85263 C 75.999641,128.51513 86.212141,134.59013 88.274641,143.85263 C 91.362141,154.04013 83.387141,165.61513 72.762141,166.27763 C 63.162141,167.62763 53.599641,159.81513 52.949641,150.17763 C 51.937141,141.42763 58.174641,132.57763 66.862141,130.85263 z"
       id="path2584"
       style="fill:#75b461" />
    <path
       d="M 238.11214,130.77763 C 247.36214,128.60263 257.52464,134.95263 259.43714,144.31513 C 261.64964,153.27763 255.97464,163.44013 246.89964,165.67763 C 237.94964,168.50263 227.44964,163.10263 224.78714,154.05263 C 221.26214,144.34013 227.92464,132.62763 238.11214,130.77763 z"
       id="path2586"
       style="fill:#75b461" />
    <path
       d="M 279.33714,154.35263 C 289.06214,151.52763 300.04964,158.54013 301.89964,168.46513 C 305.13714,180.34013 293.31214,192.77763 281.24964,190.47763 C 270.94964,189.46513 263.42464,178.44013 265.86214,168.47763 C 267.26214,161.69013 272.74964,156.21513 279.33714,154.35263 z"
       id="path2602"
       style="fill:#cbd0cb" />
    <path
       d="M 22.924641,155.40263 C 31.674641,152.05263 42.637141,156.59013 45.912141,165.51513 C 49.799641,174.49013 44.824641,186.06513 35.474641,189.15263 C 26.612141,192.77763 15.537141,187.75263 12.387141,178.74013 C 8.8246414,169.77763 13.674641,158.50263 22.924641,155.40263 z"
       id="path2604"
       style="fill:#75b461" />
    <path
       d="M 106.79964,155.72763 C 115.73714,151.76513 127.43714,156.35263 130.68714,165.72763 C 134.49964,174.62763 129.56214,185.91513 120.43714,189.11513 C 112.28714,192.39013 101.99964,188.77763 98.099641,180.81513 C 92.974641,171.96513 97.374641,159.57763 106.79964,155.72763 z"
       id="path2606"
       style="fill:#75b461" />
    <path
       d="M 190.51214,155.70263 C 198.53714,152.25263 208.96214,155.42763 213.13714,163.25263 C 218.23714,171.74013 214.87464,184.07763 205.78714,188.31513 C 197.16214,193.06513 185.32464,188.99013 181.29964,180.05263 C 176.88714,171.24013 181.21214,159.25263 190.51214,155.70263 z"
       id="path2608"
       style="fill:#75b461" />
    <path
       d="M 362.91214,155.36513 C 371.37464,152.20263 381.77464,156.32763 385.42464,164.67763 C 389.63714,173.45263 385.41214,185.15263 376.28714,188.81513 C 367.17464,193.11513 355.21214,187.97763 352.12464,178.39013 C 348.64964,169.45263 353.79964,158.36513 362.91214,155.36513 z"
       id="path2610"
       style="fill:#75b461" />
    <path
       d="M 238.09964,178.09013 C 248.96214,175.37763 260.97464,184.90263 260.21214,196.25263 C 260.93714,208.54013 246.66214,218.36513 235.41214,213.40263 C 224.82464,210.09013 220.49964,196.35263 225.84964,187.05263 C 228.33714,182.41513 233.03714,179.27763 238.09964,178.09013 z"
       id="path2616"
       style="fill:#cbd0cb" />
    <path
       d="M 64.287141,179.41513 C 73.799641,175.37763 85.812141,181.34013 88.249641,191.39013 C 91.024641,200.51513 85.174641,210.99013 75.987141,213.45263 C 67.887141,215.96513 58.374641,211.96513 54.799641,204.22763 C 49.924641,195.27763 54.649641,182.80263 64.287141,179.41513 z"
       id="path2618"
       style="fill:#75b461" />
    <path
       d="M 194.36214,201.91513 C 204.71214,199.71513 215.38714,208.30263 215.96214,218.77763 C 217.24964,230.55263 204.89964,241.30263 193.44964,238.01513 C 183.52464,236.00263 176.56214,224.61513 179.89964,214.94013 C 181.67464,208.29013 187.58714,203.06513 194.36214,201.91513 z"
       id="path2620"
       style="fill:#cbd0cb" />
    <path
       d="M 23.037141,203.16513 C 32.412141,199.56513 43.949641,205.17763 46.487141,214.97763 C 49.899641,225.20263 41.999641,237.15263 31.237141,237.95263 C 21.899641,239.26513 12.487141,232.06513 11.424641,222.69013 C 10.099641,214.51513 15.112141,205.80263 23.037141,203.16513 z"
       id="path2622"
       style="fill:#75b461" />
    <path
       d="M 107.91214,203.11513 C 117.77464,199.35263 129.69964,205.94013 131.57464,216.35263 C 134.11214,226.66513 125.66214,237.75263 115.06214,238.02763 C 105.96214,238.84013 97.112141,231.70263 96.137141,222.60263 C 94.799641,214.36513 99.937141,205.69013 107.91214,203.11513 z"
       id="path2624"
       style="fill:#75b461" />
    <path
       d="M 362.99964,203.10263 C 372.79964,199.42763 384.89964,205.86513 386.66214,216.32763 C 388.88714,225.77763 382.21214,236.21513 372.53714,237.72763 C 363.22464,239.84013 353.17464,233.17763 351.46214,223.81513 C 349.46214,215.31513 354.69964,205.85263 362.99964,203.10263 z"
       id="path2626"
       style="fill:#75b461" />
    <path
       d="M 64.412141,227.11513 C 73.024641,223.65263 83.849641,228.04013 87.349641,236.71513 C 91.499641,245.41513 87.024641,256.94013 78.037141,260.49013 C 69.287141,264.56513 57.724641,260.04013 54.312141,250.95263 C 50.162141,241.99013 55.187141,230.45263 64.412141,227.11513 z"
       id="path2632"
       style="fill:#75b461" />
    <path
       d="M 235.58714,227.09013 C 245.44964,223.05263 257.73714,229.75263 259.49964,240.27763 C 261.62464,249.40263 255.43714,259.45263 246.24964,261.42763 C 236.88714,264.02763 226.26214,257.64013 224.33714,248.09013 C 222.17464,239.56513 227.23714,229.94013 235.58714,227.09013 z"
       id="path2634"
       style="fill:#75b461" />
    <path
       d="M 25.399641,250.26513 C 34.549641,248.14013 44.637141,254.19013 46.649641,263.44013 C 49.724641,273.89013 41.124641,285.82763 30.112141,285.75263 C 20.537141,286.61513 11.474641,278.47763 11.299641,268.87763 C 10.587141,260.34013 16.887141,251.77763 25.399641,250.26513 z"
       id="path2638"
       style="fill:#75b461" />
    <path
       d="M 108.06214,250.81513 C 117.78714,247.27763 129.53714,253.65263 131.51214,263.87763 C 134.24964,274.17763 125.79964,285.62763 115.08714,285.74013 C 105.84964,286.66513 96.849641,279.26513 96.087141,270.01513 C 94.912141,261.84013 100.17464,253.32763 108.06214,250.81513 z"
       id="path2640"
       style="fill:#e44242" />
    <path
       d="M 191.68714,250.32763 C 198.16214,249.36513 205.77464,249.39013 210.49964,254.69013 C 218.91214,262.49013 217.27464,277.79013 207.32464,283.52763 C 198.13714,289.75263 184.28714,285.11513 180.51214,274.75263 C 176.21214,265.39013 181.96214,253.35263 191.68714,250.32763 z"
       id="path2642"
       style="fill:#cbd0cb" />
    <path
       d="M 278.09964,250.77763 C 287.78714,247.35263 299.44964,253.61513 301.41214,263.80263 C 304.18714,274.14013 295.81214,285.60263 285.03714,285.74013 C 275.37464,286.77763 266.04964,278.52763 265.97464,268.80263 C 265.34964,260.94013 270.54964,253.12763 278.09964,250.77763 z"
       id="path2644"
       style="fill:#75b461" />
    <path
       d="M 363.11214,250.82763 C 373.28714,247.09013 385.62464,254.19013 386.82464,265.10263 C 388.83714,275.62763 379.63714,286.45263 368.86214,285.76513 C 358.21214,286.26513 349.31214,275.36513 351.29964,265.05263 C 352.22464,258.61513 356.97464,252.95263 363.11214,250.82763 z"
       id="path2646"
       style="fill:#75b461" />
    <path
       d="M 65.587141,274.51513 C 74.237141,271.69013 84.512141,276.52763 87.649641,285.11513 C 91.224641,293.72763 86.874641,304.70263 78.162141,308.21513 C 69.287141,312.42763 57.524641,307.72763 54.174641,298.44013 C 50.087141,289.12763 55.749641,277.17763 65.587141,274.51513 z"
       id="path2648"
       style="fill:#75b461" />
    <path
       d="M 235.56214,274.35263 C 242.18714,272.81513 250.26214,273.24013 254.94964,278.89013 C 263.41214,286.60263 261.41214,301.95263 251.44964,307.46513 C 242.94964,313.15263 230.34964,309.56513 225.68714,300.60263 C 220.43714,291.11513 225.13714,277.87763 235.56214,274.35263 z"
       id="path2650"
       style="fill:#cbd0cb" />
    <path
       d="M 24.362141,298.26513 C 33.312141,295.59013 43.699641,301.06513 46.324641,310.07763 C 49.649641,319.32763 43.762141,330.57763 34.174641,332.92763 C 25.374641,335.61513 15.087141,330.50263 12.262141,321.67763 C 8.6371414,312.25263 14.512141,300.66513 24.362141,298.26513 z"
       id="path2652"
       style="fill:#75b461" />
    <path
       d="M 109.33714,298.21513 C 118.68714,295.46513 129.41214,301.77763 131.43714,311.34013 C 134.37464,321.66513 125.96214,333.32763 115.17464,333.52763 C 106.31214,334.45263 97.624641,327.67763 96.249641,318.90263 C 94.399641,309.96513 100.42464,300.30263 109.33714,298.21513 z"
       id="path2654"
       style="fill:#75b461" />
    <path
       d="M 279.32464,298.19013 C 289.09964,295.34013 300.19964,302.47763 301.61214,312.57763 C 303.68714,322.62763 295.49964,333.26513 285.18714,333.51513 C 275.39964,334.61513 265.88714,326.19013 265.96214,316.31513 C 265.38714,308.09013 271.32464,300.09013 279.32464,298.19013 z"
       id="path2656"
       style="fill:#75b461" />
    <path
       d="M 364.39964,298.26513 C 375.13714,294.84013 387.11214,303.87763 387.03714,315.07763 C 387.68714,324.99013 378.71214,334.17763 368.77464,333.56513 C 360.33714,333.76513 352.61214,327.02763 351.33714,318.75263 C 349.51214,309.87763 355.61214,300.36513 364.39964,298.26513 z"
       id="path2658"
       style="fill:#75b461" />
    <path
       d="M 66.787141,321.97763 C 75.137141,319.90263 84.412141,324.61513 87.537141,332.64013 C 91.537141,341.79013 86.362141,353.66513 76.712141,356.56513 C 67.387141,360.05263 55.937141,354.19013 53.574641,344.46513 C 50.549641,334.97763 57.037141,323.92763 66.787141,321.97763 z"
       id="path2660"
       style="fill:#75b461" />
    <path
       d="M 238.08714,321.94013 C 247.99964,319.46513 258.89964,327.14013 259.72464,337.35263 C 260.98714,345.81513 255.31214,354.54013 247.03714,356.75263 C 237.57464,359.96513 226.37464,353.50263 224.38714,343.72763 C 221.79964,334.29013 228.44964,323.67763 238.08714,321.94013 z"
       id="path2662"
       style="fill:#75b461" />
    <path
       d="M 321.83714,322.09013 C 331.11214,319.52763 341.77464,325.55263 343.83714,335.04013 C 346.69964,344.96513 339.26214,356.21513 328.98714,357.34013 C 318.79964,359.14013 308.29964,350.47763 308.46214,340.05263 C 307.93714,331.84013 313.92464,324.05263 321.83714,322.09013 z"
       id="path2664"
       style="fill:#75b461" />
    <path
       d="M 110.63714,345.70263 C 120.03714,343.67763 130.16214,350.55263 131.63714,360.06513 C 133.87464,370.21513 125.59964,381.11513 115.13714,381.32763 C 105.28714,382.34013 95.849641,373.71513 95.974641,363.82763 C 95.549641,355.22763 102.13714,347.07763 110.63714,345.70263 z"
       id="path2666"
       style="fill:#75b461" />
    <path
       d="M 194.34964,345.67763 C 204.56214,343.52763 215.48714,351.96513 215.46214,362.51513 C 216.27464,371.91513 208.43714,380.91513 199.01214,381.30263 C 189.48714,382.39013 180.14964,374.56513 179.64964,364.97763 C 178.62464,355.99013 185.43714,347.09013 194.34964,345.67763 z"
       id="path2668"
       style="fill:#75b461" />
    <path
       d="M 279.32464,345.52763 C 288.29964,342.99013 298.67464,348.70263 301.33714,357.64013 C 303.87464,363.84013 301.69964,371.21513 297.36214,376.04013 C 289.24964,385.01513 272.07464,382.94013 267.29964,371.45263 C 262.04964,361.46513 268.32464,348.00263 279.32464,345.52763 z"
       id="path2670"
       style="fill:#cbd0cb" />
    <path
       d="M 238.03714,369.21513 C 248.56214,366.54013 260.18714,375.35263 260.19964,386.27763 C 261.17464,395.29013 254.04964,403.97763 245.21214,405.36513 C 235.89964,407.34013 225.64964,400.71513 223.96214,391.29013 C 221.68714,381.57763 228.22464,371.12763 238.03714,369.21513 z"
       id="path2672"
       style="fill:#cbd0cb" />
    <path
       d="M 149.22464,370.62763 C 158.21214,366.79013 169.73714,371.54013 172.92464,380.90263 C 177.07464,390.61513 170.51214,402.81513 160.18714,404.81513 C 150.81214,407.32763 140.38714,400.77763 138.57464,391.25263 C 136.52464,382.96513 141.24964,373.72763 149.22464,370.62763 z"
       id="path2674"
       style="fill:#75b461" />
    <path
       d="M 194.21214,392.99013 C 206.23714,390.19013 218.44964,402.50263 215.66214,414.54013 C 214.11214,424.80263 202.54964,432.14013 192.63714,428.91513 C 183.16214,426.56513 176.62464,415.44013 179.88714,406.11513 C 181.69964,399.49013 187.49964,394.30263 194.21214,392.99013 z"
       id="path2676"
       style="fill:#cbd0cb" />
  </g>
</svg>
