<?xml version="1.0" encoding="UTF-8" standalone="no"?>
<!-- Created with Inkscape (http://www.inkscape.org/) -->
<svg
   xmlns:dc="http://purl.org/dc/elements/1.1/"
   xmlns:cc="http://creativecommons.org/ns#"
   xmlns:rdf="http://www.w3.org/1999/02/22-rdf-syntax-ns#"
   xmlns:svg="http://www.w3.org/2000/svg"
   xmlns="http://www.w3.org/2000/svg"
   xmlns:sodipodi="http://sodipodi.sourceforge.net/DTD/sodipodi-0.dtd"
   xmlns:inkscape="http://www.inkscape.org/namespaces/inkscape"
   width="115"
   height="30"
   id="svg3277"
   sodipodi:version="0.32"
   inkscape:version="0.46"
   version="1.0"
   sodipodi:docname="gene.svg"
   inkscape:output_extension="org.inkscape.output.svg.inkscape"
   inkscape:export-filename="C:\Users\Mickael\Workspace\spineconcept\spineconcepts-web\src\main\webapp\images\v4\gene.png"
   inkscape:export-xdpi="90"
   inkscape:export-ydpi="90">
  <defs
     id="defs3279">
    <inkscape:perspective
       sodipodi:type="inkscape:persp3d"
       inkscape:vp_x="0 : 526.18109 : 1"
       inkscape:vp_y="0 : 1000 : 0"
       inkscape:vp_z="744.09448 : 526.18109 : 1"
       inkscape:persp3d-origin="372.04724 : 350.78739 : 1"
       id="perspective3285" />
    <filter
       inkscape:collect="always"
       id="filter4069"
       x="-0.043266054"
       width="1.0865321"
       y="-0.21436363"
       height="1.4287273">
      <feGaussianBlur
         inkscape:collect="always"
         stdDeviation="1.8453757"
         id="feGaussianBlur4071" />
    </filter>
  </defs>
  <sodipodi:namedview
     id="base"
     pagecolor="#207a7a"
     bordercolor="#666666"
     borderopacity="1.0"
     gridtolerance="10000"
     guidetolerance="10"
     objecttolerance="10"
     inkscape:pageopacity="0"
     inkscape:pageshadow="2"
     inkscape:zoom="8.5185912"
     inkscape:cx="73.579799"
     inkscape:cy="10.004065"
     inkscape:document-units="px"
     inkscape:current-layer="layer1"
     showgrid="false"
     inkscape:window-width="1920"
     inkscape:window-height="1018"
     inkscape:window-x="0"
     inkscape:window-y="24" />
  <metadata
     id="metadata3282">
    <rdf:RDF>
      <cc:Work
         rdf:about="">
        <dc:format>image/svg+xml</dc:format>
        <dc:type
           rdf:resource="http://purl.org/dc/dcmitype/StillImage" />
      </cc:Work>
    </rdf:RDF>
  </metadata>
  <g
     inkscape:label="Layer 1"
     inkscape:groupmode="layer"
     id="layer1">
    <rect
       style="opacity:1;fill:#fffeff;fill-opacity:1;fill-rule:evenodd;stroke:none;stroke-width:2;stroke-linecap:round;stroke-linejoin:round;marker:none;marker-start:none;marker-mid:none;marker-end:none;stroke-miterlimit:4;stroke-dasharray:none;stroke-dashoffset:0;stroke-opacity:0.71428576;visibility:visible;display:inline;overflow:visible;filter:url(#filter4069);enable-background:accumulate"
       id="rect4047"
       width="102.36435"
       height="20.660694"
       x="4.343441"
       y="4.0567431"
       transform="matrix(1.0309632,0,0,0.9829546,0.2176835,6.9148996e-2)" />
    <g
       id="g3517"
       transform="matrix(0.2943877,0,0,0.2943877,-20.788333,-49.459078)"
       inkscape:export-filename="C:\Users\Mickael\temp\molecular.png"
       inkscape:export-xdpi="90"
       inkscape:export-ydpi="90">
      <path
         id="path3199"
         d="M 114.11111,214.01496 C 114.11111,229.98718 114.11111,229.98718 114.11111,229.98718"
         style="fill:none;fill-rule:evenodd;stroke:#000000;stroke-width:4.80000019;stroke-linecap:square;stroke-linejoin:miter;stroke-miterlimit:4;stroke-dasharray:none;stroke-opacity:1" />
      <path
         id="path3201"
         d="M 140.31944,201.67898 C 140.31944,223.30928 140.31944,223.30928 140.31944,223.30928"
         style="fill:none;fill-rule:evenodd;stroke:#000000;stroke-width:5.58585787;stroke-linecap:square;stroke-linejoin:miter;stroke-miterlimit:4;stroke-dasharray:none;stroke-opacity:1" />
      <path
         id="path3203"
         d="M 192.33826,216.83106 C 192.33826,200.85884 192.33826,200.85884 192.33826,200.85884"
         style="fill:none;fill-rule:evenodd;stroke:#000000;stroke-width:4.80000019;stroke-linecap:square;stroke-linejoin:miter;stroke-miterlimit:4;stroke-dasharray:none;stroke-opacity:1" />
      <path
         id="path3205"
         d="M 218.54659,229.16704 C 218.54659,207.53674 218.54659,207.53674 218.54659,207.53674"
         style="fill:none;fill-rule:evenodd;stroke:#000000;stroke-width:5.58585787;stroke-linecap:square;stroke-linejoin:miter;stroke-miterlimit:4;stroke-dasharray:none;stroke-opacity:1" />
      <path
         id="path3207"
         d="M 273.64135,214.84302 C 273.64135,230.81524 273.64135,230.81524 273.64135,230.81524"
         style="fill:none;fill-rule:evenodd;stroke:#000000;stroke-width:4.80000019;stroke-linecap:square;stroke-linejoin:miter;stroke-miterlimit:4;stroke-dasharray:none;stroke-opacity:1" />
      <path
         id="path3209"
         d="M 299.84968,202.50704 C 299.84968,224.13734 299.84968,224.13734 299.84968,224.13734"
         style="fill:none;fill-rule:evenodd;stroke:#000000;stroke-width:5.58585787;stroke-linecap:square;stroke-linejoin:miter;stroke-miterlimit:4;stroke-dasharray:none;stroke-opacity:1" />
      <path
         id="path3211"
         d="M 351.8685,217.65912 C 351.8685,201.6869 351.8685,201.6869 351.8685,201.6869"
         style="fill:none;fill-rule:evenodd;stroke:#000000;stroke-width:4.80000019;stroke-linecap:square;stroke-linejoin:miter;stroke-miterlimit:4;stroke-dasharray:none;stroke-opacity:1" />
      <path
         id="path3213"
         d="M 378.07683,229.9951 C 378.07683,208.3648 378.07683,208.3648 378.07683,208.3648"
         style="fill:none;fill-rule:evenodd;stroke:#000000;stroke-width:5.58585787;stroke-linecap:square;stroke-linejoin:miter;stroke-miterlimit:4;stroke-dasharray:none;stroke-opacity:1" />
      <path
         sodipodi:nodetypes="cs"
         id="path2383"
         d="M 157.12431,215.0261 C 197.95309,171.54673 237.24891,216.6711 237.24891,216.6711"
         style="fill:none;fill-rule:evenodd;stroke:#207a7a;stroke-width:10;stroke-linecap:square;stroke-linejoin:miter;stroke-miterlimit:4;stroke-dasharray:none;stroke-opacity:1" />
      <path
         sodipodi:nodetypes="cc"
         id="path3157"
         d="M 237.12264,216.60489 C 277.95143,260.08426 315.61181,216.60489 315.61181,216.60489"
         style="fill:none;fill-rule:evenodd;stroke:#207a7a;stroke-width:10;stroke-linecap:square;stroke-linejoin:miter;stroke-miterlimit:4;stroke-dasharray:none;stroke-opacity:1" />
      <path
         sodipodi:nodetypes="cs"
         id="path3165"
         d="M 317.27014,214.75295 C 358.09892,171.27358 397.39474,216.39795 397.39474,216.39795"
         style="fill:none;fill-rule:evenodd;stroke:#207a7a;stroke-width:10;stroke-linecap:butt;stroke-linejoin:miter;stroke-miterlimit:4;stroke-dasharray:none;stroke-opacity:1" />
      <path
         sodipodi:nodetypes="csssssc"
         id="path3167"
         d="M 106.75705,234.6746 C 111.39315,235.69365 115.84502,235.86349 120.04527,235.43889 C 124.24553,235.01428 128.19418,233.99523 131.82385,232.6365 C 135.45352,231.27777 138.76422,229.57936 141.68858,227.79603 C 144.61294,226.01269 147.15095,224.14444 149.23526,222.44603 C 151.31956,220.74761 152.95016,219.21904 154.05968,218.11507 C 155.1692,217.01111 155.75764,216.33174 155.75764,216.33174"
         style="fill:none;fill-rule:evenodd;stroke:#207a7a;stroke-width:10;stroke-linecap:round;stroke-linejoin:miter;stroke-miterlimit:4;stroke-dasharray:none;stroke-opacity:1" />
      <path
         sodipodi:nodetypes="csssssssssssssss"
         id="path3169"
         d="M 107.9921,212.32615 C 110.52271,210.26826 117.0381,204.52383 119.52907,203.06021 C 122.02004,201.59659 124.48658,200.41378 126.91947,199.47913 C 129.35237,198.54448 131.75162,197.858 134.108,197.38703 C 136.46438,196.91606 138.7779,196.66061 141.03933,196.58802 C 143.30076,196.51543 145.51011,196.62571 147.65815,196.8862 C 149.80619,197.1467 151.89293,197.55741 153.90914,198.08569 C 155.92535,198.61397 157.87104,199.25982 159.73698,199.9906 C 161.60293,200.72137 163.38913,201.53706 165.08636,202.40502 C 166.7836,203.27299 168.39188,204.19322 169.90197,205.13308 C 171.41206,206.07294 172.82397,207.03243 174.12847,207.97889 C 175.43298,208.92535 176.63009,209.85878 177.71057,210.74654 C 178.79105,211.6343 179.75491,212.47639 180.59293,213.24016 C 181.43095,214.00392 182.14313,214.68937 182.72025,215.26384 C 183.29737,215.83832 183.73943,216.30182 184.03721,216.62171 C 184.33499,216.94159 184.48849,217.11786 184.48849,217.11786"
         style="fill:none;fill-rule:evenodd;stroke:#207a7a;stroke-width:10;stroke-linecap:round;stroke-linejoin:miter;stroke-miterlimit:4;stroke-dasharray:none;stroke-opacity:1" />
      <path
         sodipodi:nodetypes="cc"
         id="path3171"
         d="M 184.36222,217.05165 C 225.19101,260.53102 262.85139,217.05165 262.85139,217.05165"
         style="fill:none;fill-rule:evenodd;stroke:#207a7a;stroke-width:10;stroke-linecap:square;stroke-linejoin:miter;stroke-miterlimit:4;stroke-dasharray:none;stroke-opacity:1" />
      <path
         sodipodi:nodetypes="cs"
         id="path3173"
         d="M 264.50972,215.19971 C 305.3385,171.72034 344.63432,216.84471 344.63432,216.84471"
         style="fill:none;fill-rule:evenodd;stroke:#207a7a;stroke-width:10;stroke-linecap:butt;stroke-linejoin:miter;stroke-miterlimit:4;stroke-dasharray:none;stroke-opacity:1" />
      <path
         sodipodi:nodetypes="cc"
         id="path3175"
         d="M 344.50805,216.7785 C 385.33684,260.25787 422.99722,216.7785 422.99722,216.7785"
         style="fill:none;fill-rule:evenodd;stroke:#207a7a;stroke-width:10;stroke-linecap:round;stroke-linejoin:miter;stroke-miterlimit:4;stroke-dasharray:none;stroke-opacity:1" />
      <path
         sodipodi:nodetypes="cs"
         id="path3231"
         d="M 397.68879,216.79586 C 407.89599,227.6657 414.27553,229.24877 423.17737,233.13872"
         style="fill:none;fill-rule:evenodd;stroke:#207a7a;stroke-width:10;stroke-linecap:round;stroke-linejoin:miter;stroke-miterlimit:4;stroke-dasharray:none;stroke-opacity:1" />
    </g>
  </g>
</svg>
